<svg xmlns="http://www.w3.org/2000/svg" version="1.2" viewBox="217.8 78.5 488.1 171.6"><style/><path fill-rule="evenodd" d="m324.9 250.1h-107.1l13.8-139.7-11-0.1 3.1-31.8h54.1l-14 139.5h21.4l5.4-53.7h-10.7l3.1-32.4h53.7z"/><path fill-rule="evenodd" d="m379.6 249.9l-42.8 0.2 11.9-118.1h42.9z"/><path fill-rule="evenodd" d="m455.3 250l-64.4-0.1 13.7-139.4 43-0.1-2 21.2 11.4 0.1v32.3l-14.8 0.1-5.3 53.7h21.4z"/><path fill-rule="evenodd" d="m587 131.6l-5.5 54.1h-43l2.1-21.6h-21.4l-8.8 85.9-42.6-0.1 8.8-88.5 26.5-16.6-21.1-13.2z"/><path fill-rule="evenodd" d="m461 122l36 23-36 23z"/><path d="m598.6 132h107.3l-11.9 118h-42.8l2.5-21.7-24.1 21.6h-42.7zm56.1 85.8l5.1-53.7h-21.6l-5.3 53.6z"/></svg>